:version 1.10
:name ASF
:units
  mass 1
  length 1
  angle deg
:documentation
  ASF file generated by Kaydara
:root
  axis xyz
  order  tx ty tz rx ry rz
  position 0 0 0
  orientation 0 0 0
:bonedata
  begin
    id 1
    name RightUpLegDummy
    direction -1 2.30186e-007 8.31532e-007
    length 4.46685
    axis 0 0 0 xyz
  end
  begin
    id 2
    name RightUpLeg
    direction -2.30187e-007 -1 1.24343e-010
    length 16.4045
    axis -3.49089 -0.000906625 0.000286804 xyz
    dof rx ry rz
  end
  begin
    id 3
    name RightLeg
    direction -2.30181e-007 -1 -4.17157e-009
    length 17.5097
    axis 3.68512 0.0193738 -0.131023 xyz
    dof rx ry rz
  end
  begin
    id 4
    name RightFoot
    direction 8.31421e-007 -4.51202e-011 1
    length 6.49508
    axis 4.81691e-005 -0.120479 -0.188788 xyz
    dof rx ry rz
  end
  begin
    id 5
    name RightToes
    direction 0.00124746 -0.014064 0.9999
    length 3.85082
    axis 0.000481921 0.542163 -0.142578 xyz
    dof rx ry rz
  end
  begin
    id 6
    name SpineDummy
    direction 0.0717043 0.9409 -0.331007
    length 10.0032
    axis 0 0 0 xyz
  end
  begin
    id 7
    name Spine
    direction 2.30186e-007 1 4.58806e-011
    length 9.84055
    axis -0.001389 0.000121418 2.40972e-006 xyz
    dof rx ry rz
  end
  begin
    id 8
    name Spine1
    direction 0 0 0
    length 0
    axis -0.001389 0.000121451 1.30017e-006 xyz
    dof rx ry rz
  end
  begin
    id 9
    name HEadDummy
    direction -0.00347485 0.950688 -0.310128
    length 8.00997
    axis -0.001389 0.000121451 1.30017e-006 xyz
  end
  begin
    id 10
    name HEad
    direction -0.0222688 0.980941 0.193023
    length 5.12695
    axis -0.001389 0.000121451 1.30017e-006 xyz
    dof rx ry rz
  end
  begin
    id 11
    name LeftShoulder1Dummy
    direction 0.988871 0.146793 -0.0242004
    length 3.5792
    axis -0.001389 0.000121451 1.30017e-006 xyz
  end
  begin
    id 12
    name LeftShoulder1
    direction 0.993832 0.108932 0.020779
    length 4.16823
    axis -0.001389 0.000121451 1.30017e-006 xyz
    dof rx ry rz
  end
  begin
    id 13
    name LeftArm
    direction 1 3.44807e-006 -8.31404e-007
    length 9.91437
    axis -23.1894 0.134784 0.967509 xyz
    dof rx ry rz
  end
  begin
    id 14
    name LeftForeArm
    direction 1 3.44842e-006 -8.31581e-007
    length 9.08575
    axis -9.91835 -0.06569 -0.177793 xyz
    dof rx ry rz
  end
  begin
    id 15
    name LeftHand
    direction 0.992938 -0.0411636 0.11126
    length 5.32135
    axis -0.00960232 -0.00340091 0.185173 xyz
    dof rx ry rz
  end
  begin
    id 16
    name RightShoulderDummy
    direction -0.988871 0.146793 -0.0241962
    length 3.5792
    axis -0.001389 0.000121451 1.30017e-006 xyz
  end
  begin
    id 17
    name RightShoulder
    direction -0.993832 0.108933 0.0207785
    length 4.16823
    axis 0.215806 0.000203643 -0.0068026 xyz
    dof rx ry rz
  end
  begin
    id 18
    name RightArm
    direction -1 3.90912e-006 8.31284e-007
    length 9.91437
    axis -23.2009 -0.134239 -0.964101 xyz
    dof rx ry rz
  end
  begin
    id 19
    name RightForeArm
    direction -1 3.90882e-006 8.31502e-007
    length 9.08575
    axis -9.92322 0.0658061 0.178867 xyz
    dof rx ry rz
  end
  begin
    id 20
    name RightHand
    direction -0.992843 -0.0414603 0.112003
    length 5.28593
    axis -0.00960638 0.00330671 -0.185228 xyz
    dof rx ry rz
  end
  begin
    id 21
    name LeftUpLegDummy
    direction 1 -2.30186e-007 -8.31532e-007
    length 4.46685
    axis 0 0 0 xyz
  end
  begin
    id 22
    name LeftUpLeg
    direction -2.30187e-007 -1 6.00931e-010
    length 16.4045
    axis -3.48766 0.00143442 -0.000524262 xyz
    dof rx ry rz
  end
  begin
    id 23
    name LeftLeg
    direction -2.30187e-007 -1 1.6669e-009
    length 17.5097
    axis 3.68178 -0.00654042 -0.000285133 xyz
    dof rx ry rz
  end
  begin
    id 24
    name LeftFoot
    direction 8.31532e-007 -4.54478e-011 1
    length 6.49508
    axis 1.87233e-006 4.66016e-005 -8.6538e-006 xyz
    dof rx ry rz
  end
  begin
    id 25
    name LeftToes
    direction 0.00818058 -0.00485161 0.999955
    length 3.85048
    axis 1.06247e-005 4.65869e-005 -8.65513e-006 xyz
    dof rx ry rz
  end
:hierarchy
  begin
    root RightUpLegDummy SpineDummy LeftUpLegDummy
    RightUpLegDummy RightUpLeg
    RightUpLeg RightLeg
    RightLeg RightFoot
    RightFoot RightToes
    SpineDummy Spine
    Spine Spine1
    Spine1 HEadDummy LeftShoulder1Dummy RightShoulderDummy
    HEadDummy HEad
    LeftShoulder1Dummy LeftShoulder1
    LeftShoulder1 LeftArm
    LeftArm LeftForeArm
    LeftForeArm LeftHand
    RightShoulderDummy RightShoulder
    RightShoulder RightArm
    RightArm RightForeArm
    RightForeArm RightHand
    LeftUpLegDummy LeftUpLeg
    LeftUpLeg LeftLeg
    LeftLeg LeftFoot
    LeftFoot LeftToes
  end

:SAMPLES-PER-SECOND 30
:FULLY-SPECIFIED
:DEGREES
21
root  1.48979 33.8456 -1.04149 -178.291 -3.56909 179.995
RightUpLeg  5.98819 -5.27523 -0.840175
RightLeg  1.29662 -2.02091 0.0847641
RightFoot  3.25731 0.0144228 -0.165527
RightToes  -26.646 -0.121009 -0.227727
Spine  1.15019 -1.48766 -0.431762
Spine1  2.32026 -2.98115 -1.08346
HEad  9.33897 -0.381439 9.35944
LeftShoulder1  0 -2.42657e-020 -4.95415e-022
LeftArm  -69.3935 14.0779 -12.2613
LeftForeArm  59.0662 -24.6304 -4.58581
LeftHand  0.674933 -8.7833 -9.14832
RightShoulder  0 2.42657e-020 1.07489e-018
RightArm  -76.955 -9.81968 13.4243
RightForeArm  63.6759 9.02867 1.55378
RightHand  -0.703211 23.9958 -2.93881
LeftUpLeg  5.40273 4.99371 2.74968
LeftLeg  2.66047 -2.80931 0.0497556
LeftFoot  2.30315 0.0114585 -0.15557
LeftToes  -15.1159 1.18758e-006 1.19596e-007
22
root  1.47562 33.844 -1.05486 -178.347 -3.62785 179.979
RightUpLeg  6.02205 -5.0727 -0.837359
RightLeg  1.40174 -2.30549 0.0924443
RightFoot  3.18979 0.0152802 -0.178841
RightToes  -26.6568 -0.120795 -0.227727
Spine  1.18611 -1.49565 -0.42741
Spine1  2.3939 -2.99485 -1.08828
HEad  9.19733 -0.312626 9.28416
LeftShoulder1  0 -2.42657e-020 -4.95415e-022
LeftArm  -69.1065 13.8655 -12.5214
LeftForeArm  58.7358 -24.8528 -4.63422
LeftHand  0.681587 -8.82261 -9.195
RightShoulder  0 2.42657e-020 1.07489e-018
RightArm  -76.943 -9.8378 13.4205
RightForeArm  63.8117 8.85489 1.52221
RightHand  -0.725334 23.975 -3.0459
LeftUpLeg  5.49297 4.9496 2.71874
LeftLeg  2.62283 -2.82599 0.052236
LeftFoot  2.29866 0.011352 -0.153915
LeftToes  -15.096 1.18758e-006 1.19596e-007
23
root  1.46483 33.844 -1.05836 -178.409 -3.70564 179.971
RightUpLeg  5.98444 -4.95525 -0.828193
RightLeg  1.63167 -2.52852 0.0912564
RightFoot  3.06632 0.0157082 -0.185487
RightToes  -26.523 -0.120585 -0.227727
Spine  1.22723 -1.51209 -0.429104
Spine1  2.47834 -3.02509 -1.0955
HEad  9.0312 -0.280983 9.30261
LeftShoulder1  0 -2.42657e-020 -4.95415e-022
LeftArm  -68.8622 13.5939 -12.7176
LeftForeArm  58.6365 -24.9777 -4.66129
LeftHand  0.682401 -8.84394 -9.18418
RightShoulder  0 2.42657e-020 1.07489e-018
RightArm  -77.1467 -9.86106 13.4742
RightForeArm  63.9272 8.73047 1.49958
RightHand  -0.756013 23.9059 -3.2009
LeftUpLeg  5.56039 4.86756 2.69491
LeftLeg  2.59732 -2.81439 0.0498781
LeftFoot  2.30558 0.0112596 -0.152479
LeftToes  -15.0732 1.18758e-006 1.19596e-007
24
root  1.45444 33.8446 -1.05513 -178.458 -3.81171 179.955
RightUpLeg  5.93293 -4.90389 -0.844027
RightLeg  1.84753 -2.6857 0.0868343
RightFoot  2.96693 0.0158302 -0.187382
RightToes  -26.5527 -0.120381 -0.227727
Spine  1.27677 -1.53798 -0.436518
Spine1  2.57919 -3.07358 -1.10897
HEad  8.88442 -0.281444 9.28913
LeftShoulder1  0 -2.42657e-020 -4.95415e-022
LeftArm  -68.6588 13.3393 -12.9016
LeftForeArm  58.5105 -25.0396 -4.6749
LeftHand  0.687159 -8.89279 -9.15271
RightShoulder  0 2.42657e-020 1.07489e-018
RightArm  -77.3932 -9.88485 13.5196
RightForeArm  64.0179 8.71345 1.49631
RightHand  -0.74215 23.8713 -3.14067
LeftUpLeg  5.58695 4.77185 2.66143
LeftLeg  2.60077 -2.82193 0.0492817
LeftFoot  2.30856 0.0111817 -0.151269
LeftToes  -15.0493 1.18758e-006 1.19596e-007
25
root  1.44339 33.8455 -1.04283 -178.479 -3.89531 179.943
RightUpLeg  5.86822 -4.46865 -0.799372
RightLeg  1.99794 -3.1392 0.0932127
RightFoot  2.91582 0.0171074 -0.207215
RightToes  -26.4949 -0.120182 -0.227727
Spine  1.3265 -1.56547 -0.43876
Spine1  2.68055 -3.12574 -1.11526
HEad  8.7457 -0.310592 9.25595
LeftShoulder1  0 -2.42657e-020 -4.95415e-022
LeftArm  -68.3927 13.0855 -13.021
LeftForeArm  58.5882 -25.0478 -4.67649
LeftHand  0.688319 -8.98419 -9.1214
RightShoulder  0 2.42657e-020 1.07489e-018
RightArm  -77.4225 -9.89444 13.576
RightForeArm  64.1003 8.7045 1.49451
RightHand  -0.7725 23.8726 -3.28395
LeftUpLeg  5.58024 4.74725 2.63505
LeftLeg  2.59058 -2.87546 0.0544489
LeftFoot  2.3377 0.0111186 -0.150289
LeftToes  -15.0624 1.18758e-006 1.19596e-007
26
root  1.42597 33.8467 -1.02315 -178.509 -4.01776 179.921
RightUpLeg  5.82605 -4.73998 -0.869269
RightLeg  2.11586 -3.06242 0.0846701
RightFoot  2.86401 0.0165879 -0.199148
RightToes  -26.3669 -0.119987 -0.227727
Spine  1.37804 -1.59926 -0.441251
Spine1  2.78559 -3.19018 -1.12052
HEad  8.60994 -0.363713 9.26731
LeftShoulder1  0 -2.42657e-020 -4.95415e-022
LeftArm  -68.261 12.7632 -13.0913
LeftForeArm  58.7044 -24.963 -4.65798
LeftHand  0.678166 -8.92774 -9.04739
RightShoulder  0 2.42657e-020 1.07489e-018
RightArm  -77.5432 -9.90195 13.5841
RightForeArm  64.1678 8.72428 1.4979
RightHand  -0.805522 23.7779 -3.45566
LeftUpLeg  5.53093 4.6194 2.57356
LeftLeg  2.64546 -2.86726 0.0515403
LeftFoot  2.33793 0.0110709 -0.149546
LeftToes  -15.0076 1.18758e-006 1.19596e-007
